<svg xmlns="http://www.w3.org/2000/svg" viewBox="0 0 760 380" width="760" height="380" font-family="system-ui, sans-serif">
<text x="68" y="24" font-size="15" font-weight="600" fill="#8b949e">Warm-up: throughput ramps from stableRate / coldFactor to stableRate</text>
<line x1="68" y1="328" x2="736" y2="328" stroke="#8b949e" stroke-opacity="0.18"/>
<text x="60" y="332" font-size="11" fill="#8b949e" text-anchor="end">0</text>
<line x1="68" y1="261.7962962962963" x2="736" y2="261.7962962962963" stroke="#8b949e" stroke-opacity="0.18"/>
<text x="60" y="265.7962962962963" font-size="11" fill="#8b949e" text-anchor="end">25</text>
<line x1="68" y1="195.59259259259258" x2="736" y2="195.59259259259258" stroke="#8b949e" stroke-opacity="0.18"/>
<text x="60" y="199.59259259259258" font-size="11" fill="#8b949e" text-anchor="end">50</text>
<line x1="68" y1="129.38888888888889" x2="736" y2="129.38888888888889" stroke="#8b949e" stroke-opacity="0.18"/>
<text x="60" y="133.38888888888889" font-size="11" fill="#8b949e" text-anchor="end">75</text>
<line x1="68" y1="63.18518518518516" x2="736" y2="63.18518518518516" stroke="#8b949e" stroke-opacity="0.18"/>
<text x="60" y="67.18518518518516" font-size="11" fill="#8b949e" text-anchor="end">100</text>
<text x="68" y="346" font-size="11" fill="#8b949e" text-anchor="middle">0</text>
<text x="322.4761904761905" y="346" font-size="11" fill="#8b949e" text-anchor="middle">2</text>
<text x="576.952380952381" y="346" font-size="11" fill="#8b949e" text-anchor="middle">4</text>
<line x1="68" y1="328" x2="736" y2="328" stroke="#8b949e" stroke-opacity="0.5"/>
<text x="402" y="368" font-size="12" fill="#8b949e" text-anchor="middle">time (seconds)</text>
<text x="16" y="185" font-size="12" fill="#8b949e" text-anchor="middle" transform="rotate(-90 16 185)">permits per second</text>
<line x1="68" y1="63.18518518518516" x2="736" y2="63.18518518518516" stroke="#8b949e" stroke-dasharray="4 4" stroke-opacity="0.65"/>
<text x="732" y="57.18518518518516" font-size="11" fill="#8b949e" text-anchor="end">stableRate = 100/s</text>
<line x1="68" y1="239.72839506172838" x2="736" y2="239.72839506172838" stroke="#8b949e" stroke-dasharray="4 4" stroke-opacity="0.65"/>
<text x="732" y="233.72839506172838" font-size="11" fill="#8b949e" text-anchor="end">cold = 33.3/s</text>
<path d="M68.0 232.7 L99.8 232.7 L131.6 232.7 L163.4 222.1 L195.2 222.1 L227.0 211.5 L258.9 211.5 L290.7 190.3 L322.5 179.7 L354.3 169.1 L386.1 137.3 L417.9 105.6 L449.7 63.2 L481.5 63.2 L513.3 63.2 L545.1 63.2 L577.0 63.2 L608.8 63.2 L640.6 63.2 L672.4 63.2 L704.2 63.2 L736.0 63.2" fill="none" stroke="#2f81f7" stroke-width="2"/>
</svg>
